<?xml version="1.0" encoding="UTF-8" standalone="no"?><!DOCTYPE svg PUBLIC "-//W3C//DTD SVG 1.1//EN" "http://www.w3.org/Graphics/SVG/1.1/DTD/svg11.dtd"><svg width="100%" height="100%" viewBox="0 0 112 41" version="1.1" xmlns="http://www.w3.org/2000/svg" xmlns:xlink="http://www.w3.org/1999/xlink" xml:space="preserve" xmlns:serif="http://www.serif.com/" style="fill-rule:evenodd;clip-rule:evenodd;stroke-linejoin:round;stroke-miterlimit:1.41421;"><g><g><path d="M49.823,28.516c-0.638,0 -1.2,-0.088 -1.686,-0.263c-0.485,-0.176 -0.879,-0.411 -1.182,-0.704c-0.303,-0.293 -0.549,-0.662 -0.738,-1.105c-0.189,-0.443 -0.319,-0.905 -0.391,-1.387c-0.072,-0.483 -0.108,-1.023 -0.108,-1.623l0,-6.441c0,-0.625 0.038,-1.184 0.113,-1.676c0.075,-0.492 0.208,-0.955 0.401,-1.388c0.192,-0.433 0.441,-0.793 0.747,-1.08c0.306,-0.287 0.699,-0.511 1.178,-0.674c0.479,-0.163 1.034,-0.245 1.666,-0.245c0.711,0 1.317,0.106 1.818,0.318c0.502,0.212 0.9,0.523 1.193,0.933c0.293,0.411 0.505,0.89 0.635,1.437c0.13,0.547 0.196,1.186 0.196,1.916l0,0.997l-1.447,0l0,-0.948c0,-0.574 -0.029,-1.053 -0.088,-1.437c-0.059,-0.385 -0.171,-0.738 -0.337,-1.061c-0.166,-0.322 -0.411,-0.56 -0.733,-0.713c-0.323,-0.153 -0.732,-0.23 -1.227,-0.23c-0.534,0 -0.976,0.085 -1.324,0.254c-0.349,0.17 -0.611,0.427 -0.787,0.772c-0.176,0.346 -0.296,0.722 -0.362,1.129c-0.065,0.408 -0.097,0.908 -0.097,1.501l0,6.88c0,1.258 0.187,2.173 0.562,2.747c0.374,0.573 1.044,0.86 2.008,0.86c0.398,0 0.74,-0.057 1.026,-0.171c0.287,-0.114 0.517,-0.266 0.69,-0.455c0.172,-0.189 0.309,-0.438 0.41,-0.747c0.101,-0.31 0.169,-0.629 0.205,-0.958c0.036,-0.329 0.054,-0.722 0.054,-1.178l0,-1.055l1.447,0l0,0.948c0,0.593 -0.036,1.125 -0.108,1.598c-0.072,0.472 -0.197,0.917 -0.376,1.334c-0.179,0.417 -0.412,0.762 -0.699,1.036c-0.287,0.273 -0.653,0.489 -1.1,0.645c-0.446,0.156 -0.966,0.234 -1.559,0.234Z" style="fill:#fff;fill-rule:nonzero;"/><path d="M57.73,28.497c-0.677,0 -1.234,-0.249 -1.671,-0.748c-0.436,-0.498 -0.655,-1.116 -0.655,-1.852c0,-0.384 0.033,-0.728 0.098,-1.031c0.065,-0.303 0.187,-0.588 0.367,-0.855c0.179,-0.267 0.374,-0.504 0.586,-0.709c0.212,-0.205 0.513,-0.423 0.904,-0.655c0.391,-0.231 0.782,-0.444 1.173,-0.64c0.391,-0.195 0.902,-0.433 1.534,-0.713l0,-0.831c0,-1.062 -0.101,-1.794 -0.303,-2.194c-0.202,-0.401 -0.579,-0.601 -1.133,-0.601c-1.069,0 -1.603,0.661 -1.603,1.984l0,0.42l-1.447,-0.049c0,-0.189 0.003,-0.306 0.01,-0.352c0.046,-1.088 0.329,-1.878 0.85,-2.37c0.522,-0.492 1.277,-0.738 2.268,-0.738c1.023,0 1.749,0.303 2.179,0.909c0.43,0.606 0.645,1.577 0.645,2.913l0,5.629c0,0.932 0.036,1.698 0.108,2.297l-1.3,0l-0.215,-1.603c-0.176,0.509 -0.474,0.934 -0.894,1.276c-0.421,0.342 -0.921,0.513 -1.501,0.513Zm0.479,-1.261c0.391,0 0.751,-0.135 1.08,-0.406c0.329,-0.27 0.588,-0.591 0.777,-0.962l0,-3.607c-0.039,0.02 -0.101,0.052 -0.185,0.098c-0.32,0.169 -0.564,0.3 -0.733,0.391c-0.17,0.091 -0.373,0.205 -0.611,0.342c-0.238,0.137 -0.416,0.251 -0.533,0.342c-0.117,0.091 -0.252,0.202 -0.405,0.332c-0.154,0.131 -0.264,0.253 -0.333,0.367c-0.068,0.114 -0.138,0.246 -0.21,0.396c-0.072,0.15 -0.12,0.308 -0.147,0.474c-0.026,0.166 -0.039,0.35 -0.039,0.552c0,0.567 0.127,0.989 0.382,1.266c0.254,0.277 0.573,0.415 0.957,0.415Z" style="fill:#fff;fill-rule:nonzero;"/><path d="M63.79,28.311l0,-11.572l1.466,0l0,1.593c0.352,-0.586 0.764,-1.02 1.237,-1.3c0.472,-0.28 0.949,-0.42 1.432,-0.42c0.117,0 0.202,0.003 0.254,0.01l0,1.583c-0.209,-0.085 -0.443,-0.127 -0.704,-0.127c-0.938,0 -1.678,0.45 -2.219,1.349l0,8.884l-1.466,0Z" style="fill:#fff;fill-rule:nonzero;"/><path d="M69.645,32.123l0,-15.384l1.466,0l0,0.968c0.619,-0.763 1.358,-1.144 2.218,-1.144c0.431,0 0.807,0.088 1.129,0.264c0.323,0.176 0.577,0.404 0.763,0.684c0.185,0.28 0.335,0.629 0.449,1.046c0.114,0.417 0.189,0.829 0.225,1.236c0.036,0.408 0.054,0.869 0.054,1.383l0,2.444c0,0.612 -0.026,1.16 -0.078,1.642c-0.052,0.482 -0.144,0.93 -0.274,1.344c-0.13,0.413 -0.301,0.756 -0.513,1.026c-0.212,0.27 -0.477,0.482 -0.797,0.635c-0.319,0.153 -0.69,0.23 -1.114,0.23c-0.749,0 -1.437,-0.368 -2.062,-1.105l0,4.731l-1.466,0Zm3.294,-4.789c0.26,0 0.482,-0.054 0.664,-0.161c0.183,-0.108 0.331,-0.255 0.445,-0.44c0.114,-0.186 0.203,-0.438 0.269,-0.758c0.065,-0.319 0.109,-0.659 0.132,-1.021c0.022,-0.362 0.034,-0.8 0.034,-1.315l0,-2.463c0,-1.238 -0.104,-2.124 -0.313,-2.658c-0.208,-0.534 -0.629,-0.802 -1.261,-0.802c-0.593,0 -1.192,0.297 -1.798,0.89l0,7.887c0.534,0.561 1.143,0.841 1.828,0.841Z" style="fill:#fff;fill-rule:nonzero;"/><path d="M80.904,28.497c-1.107,0 -1.906,-0.342 -2.394,-1.026c-0.489,-0.685 -0.733,-1.854 -0.733,-3.509l0,-2.923c0,-1.127 0.115,-2.021 0.347,-2.682c0.231,-0.662 0.57,-1.126 1.016,-1.393c0.446,-0.267 1.038,-0.401 1.774,-0.401c0.489,0 0.906,0.064 1.251,0.191c0.345,0.127 0.632,0.308 0.86,0.542c0.228,0.235 0.409,0.552 0.543,0.953c0.133,0.401 0.226,0.844 0.278,1.329c0.052,0.486 0.078,1.071 0.078,1.755l-0.009,1.045l-4.672,0l0,1.73c0,1.199 0.115,2.046 0.347,2.542c0.231,0.495 0.666,0.742 1.304,0.742c0.509,0 0.9,-0.161 1.173,-0.483c0.274,-0.323 0.411,-0.908 0.411,-1.755l0,-0.801l1.437,0l0,0.645c0,1.121 -0.235,1.984 -0.704,2.59c-0.469,0.606 -1.238,0.909 -2.307,0.909Zm-1.661,-6.959l3.235,0l0,-0.958c0,-0.404 -0.01,-0.739 -0.03,-1.007c-0.019,-0.267 -0.06,-0.532 -0.122,-0.796c-0.062,-0.264 -0.148,-0.471 -0.259,-0.621c-0.11,-0.15 -0.264,-0.27 -0.459,-0.361c-0.196,-0.092 -0.43,-0.137 -0.704,-0.137c-0.619,0 -1.05,0.215 -1.295,0.645c-0.244,0.43 -0.366,1.248 -0.366,2.453l0,0.782Z" style="fill:#fff;fill-rule:nonzero;"/><path d="M85.899,28.311l0,-11.572l1.466,0l0,1.202c0.853,-0.919 1.782,-1.378 2.785,-1.378c0.574,0 1.013,0.213 1.32,0.64c0.306,0.427 0.459,1.035 0.459,1.823l0,9.285l-1.466,0l0,-8.972c0,-0.587 -0.09,-1.004 -0.269,-1.251c-0.179,-0.248 -0.457,-0.372 -0.835,-0.372c-0.632,0 -1.297,0.355 -1.994,1.066l0,9.529l-1.466,0Z" style="fill:#fff;fill-rule:nonzero;"/><path d="M96.836,28.458c-0.789,0 -1.333,-0.217 -1.633,-0.65c-0.299,-0.433 -0.453,-1.067 -0.459,-1.901l0,-8.191l-1.398,0l0,-0.977l1.398,0l0,-3.577l1.466,0l0,3.577l1.925,0l0,0.977l-1.925,0l0,8.054c0,0.586 0.068,0.989 0.205,1.207c0.137,0.218 0.414,0.328 0.831,0.328c0.267,0 0.541,-0.027 0.821,-0.079l0,1.105c-0.437,0.084 -0.847,0.127 -1.231,0.127Z" style="fill:#fff;fill-rule:nonzero;"/><path d="M99.807,28.311l0,-11.572l1.466,0l0,1.593c0.352,-0.586 0.764,-1.02 1.236,-1.3c0.473,-0.28 0.95,-0.42 1.432,-0.42c0.117,0 0.202,0.003 0.254,0.01l0,1.583c-0.208,-0.085 -0.443,-0.127 -0.703,-0.127c-0.939,0 -1.678,0.45 -2.219,1.349l0,8.884l-1.466,0Z" style="fill:#fff;fill-rule:nonzero;"/><path d="M105.339,31.194l0,-1.143c0.704,0 1.231,-0.055 1.583,-0.166c0.352,-0.111 0.574,-0.267 0.665,-0.469c0.058,-0.131 0.091,-0.3 0.098,-0.509c0,-0.11 -0.01,-0.234 -0.03,-0.371c-0.032,-0.241 -0.146,-0.775 -0.342,-1.603c-0.156,-0.645 -0.583,-2.466 -1.28,-5.463c-0.697,-2.998 -1.066,-4.575 -1.105,-4.731l1.466,0l2.014,9.842l1.935,-9.842l1.476,0l-2.805,12.403c-0.17,0.736 -0.513,1.262 -1.031,1.578c-0.518,0.316 -1.273,0.474 -2.263,0.474l-0.381,0Z" style="fill:#fff;fill-rule:nonzero;"/></g><path d="M40.705,40.705l-40.705,0l0,-40.705l40.705,0c0,13.568 0,27.137 0,40.705Zm-39.124,-39.124l0,37.543l37.543,0l0,-37.543c-12.514,0 -25.028,0 -37.543,0Z" style="fill:#fff;fill-rule:nonzero;"/><path d="M11.328,28.3c0.361,0.026 0.723,0 1.058,-0.025c1.702,-0.13 2.554,-1.033 2.554,-3.252l0,-13.701l1.188,0l0,13.624c0,3.173 -1.42,4.335 -3.613,4.438c-0.388,0.026 -0.774,0.026 -1.187,0l0,-1.084Z" style="fill:#fff;fill-rule:nonzero;"/><path d="M25.034,9.42l-5.22,21.866l-1.058,0l5.22,-21.866l1.058,0Z" style="fill:#fff;fill-rule:nonzero;"/><path d="M24.578,28.3c0.362,0.026 0.723,0 1.058,-0.025c1.703,-0.13 2.554,-1.033 2.554,-3.252l0,-13.701l1.188,0l0,13.624c0,3.173 -1.419,4.335 -3.613,4.438c-0.387,0.026 -0.774,0.026 -1.187,0l0,-1.084Z" style="fill:#fff;fill-rule:nonzero;"/></g></svg>